<svg xmlns="http://www.w3.org/2000/svg"  viewBox="0 0 48 48" width="48px" height="48px" baseProfile="basic"><path fill="#40c4ff" d="M28.004,1c-5.382,0-9.949,5.206-13.14,11.472c1.615-4.713,3.152-7.482,3.152-7.482 c-8.107,10.848-8.013,24.027-8.013,24.027l0.011-0.037c-0.015,0.299-0.022,0.587-0.022,0.864c0,7.891,2.364,17.154,10.929,17.154 c9.451,0,18.062-12.875,18.062-27.018C38.982,3.064,31.162,1,28.004,1z M14.02,30.004c0-11.091,6.302-25.01,13.366-25.01 c4.302,0,7.348,5.451,6.569,18c0,0,1.224-5.03,0.664-11.641c0.832,2.301,1.385,5.418,1.385,9.645c0,2.188-0.333,4.451-0.908,6.667 c-1.637,5.555-5.387,13.336-10.391,13.336c-6.258,0-7.725-8.053-7.725-8.053c0,8.993,5.608,10.088,8.482,10.06 c-1.053,0.637-2.1,0.997-3.095,0.997C17.05,44.006,14.02,39.229,14.02,30.004z"/></svg>